<svg width="341" height="71" viewBox="0 0 341 71" fill="none" xmlns="http://www.w3.org/2000/svg">
<path d="M223.28 37.93C222.79 37.13 222.13 36.52 221.29 36.08C220.45 35.64 219.5 35.42 218.44 35.42H213.76H213.09H211.86V53.1H213.76V46.01H218.44C219.5 46.01 220.45 45.79 221.29 45.35C222.13 44.91 222.79 44.3 223.28 43.51C223.77 42.72 224.01 41.79 224.01 40.71C224.01 39.66 223.77 38.73 223.28 37.93ZM221.6 42.66C221.27 43.2 220.83 43.61 220.25 43.91C219.67 44.2 219.02 44.35 218.28 44.35H213.76V37.1H218.28C219.02 37.1 219.67 37.25 220.25 37.54C220.82 37.83 221.27 38.25 221.6 38.79C221.93 39.33 222.09 39.98 222.09 40.73C222.09 41.48 221.92 42.12 221.6 42.66Z" fill="white"/>
<path d="M228.93 51.39V35.43H227.02V53.11H228.28H228.93H238.02V51.39H228.93Z" fill="white"/>
<path d="M254.1 53.11H256.16L248.99 35.43H247.55L240.33 53.11H242.33L244.19 48.51H252.27L254.1 53.11ZM244.85 46.86L248.25 38.44L251.61 46.86H244.85Z" fill="white"/>
<path d="M269.44 35.43H255.08V37.15H261.32V53.11H263.22V37.15H269.44V35.43Z" fill="white"/>
<path d="M283.49 37.15V35.43H274.21H273.57H272.31V53.11H274.21V45.14H283.06V43.39H274.21V37.15H283.49Z" fill="white"/>
<path d="M294.74 53.36C293.49 53.36 292.32 53.12 291.24 52.65C290.16 52.18 289.22 51.53 288.41 50.7C287.61 49.87 286.98 48.9 286.54 47.8C286.09 46.7 285.87 45.51 285.87 44.24C285.87 42.95 286.09 41.76 286.54 40.67C286.98 39.57 287.61 38.61 288.4 37.79C289.2 36.97 290.13 36.32 291.2 35.86C292.27 35.4 293.43 35.17 294.68 35.17C295.93 35.17 297.09 35.4 298.16 35.86C299.23 36.32 300.17 36.96 300.97 37.79C301.78 38.61 302.4 39.58 302.85 40.68C303.29 41.78 303.52 42.98 303.52 44.27C303.52 45.54 303.3 46.72 302.85 47.83C302.4 48.93 301.78 49.9 300.99 50.72C300.19 51.54 299.26 52.19 298.2 52.66C297.14 53.13 295.99 53.36 294.74 53.36ZM294.69 51.54C296.03 51.54 297.21 51.22 298.24 50.59C299.27 49.96 300.08 49.09 300.68 47.99C301.28 46.89 301.58 45.64 301.58 44.24C301.58 43.19 301.41 42.23 301.07 41.35C300.73 40.47 300.25 39.7 299.63 39.05C299.01 38.4 298.28 37.89 297.45 37.53C296.61 37.17 295.69 36.99 294.7 36.99C293.38 36.99 292.2 37.3 291.17 37.93C290.13 38.56 289.32 39.41 288.73 40.5C288.14 41.59 287.84 42.83 287.84 44.24C287.84 45.29 288.01 46.25 288.35 47.14C288.69 48.03 289.17 48.81 289.79 49.47C290.41 50.13 291.13 50.64 291.97 51C292.81 51.36 293.71 51.54 294.69 51.54Z" fill="white"/>
<path d="M317.84 53.11H320.28L313.76 45.2C314.8 45.17 315.72 44.99 316.48 44.61C317.3 44.2 317.93 43.63 318.37 42.9C318.81 42.17 319.03 41.31 319.03 40.32C319.03 39.38 318.81 38.54 318.37 37.8C317.93 37.06 317.3 36.49 316.48 36.07C315.66 35.65 314.67 35.44 313.52 35.44H309.05H308.38H307.15V53.12H309.05V45.23H311.44L317.84 53.11ZM309.06 37.1H313.53C314.7 37.1 315.59 37.4 316.2 38.01C316.82 38.62 317.13 39.4 317.13 40.36C317.13 41.34 316.82 42.12 316.19 42.71C315.56 43.3 314.67 43.6 313.5 43.6H309.05V37.1H309.06Z" fill="white"/>
<path d="M338.8 35.43L331.65 47.14L324.51 35.43H323.15V53.11H325.05V39.56L330.98 49.3H332.32L338.26 39.56V53.11H340.16V35.43H338.8Z" fill="white"/>
<path d="M124.09 28.8V30.83C123.43 30.2 122.68 29.67 121.81 29.25C120.49 28.62 119.02 28.3 117.38 28.3C115.15 28.3 113.15 28.84 111.4 29.93C109.65 31.01 108.27 32.51 107.25 34.43C106.23 36.35 105.73 38.52 105.73 40.96C105.73 43.39 106.24 45.55 107.25 47.44C108.27 49.32 109.66 50.82 111.43 51.94C113.2 53.06 115.18 53.62 117.38 53.62C119.05 53.62 120.54 53.3 121.86 52.67C122.71 52.26 123.44 51.74 124.09 51.13V53.12H131.64V28.82H124.09V28.8ZM118.99 46.66C117.96 46.66 117.03 46.42 116.21 45.93C115.39 45.45 114.74 44.77 114.26 43.9C113.78 43.03 113.53 42.05 113.53 40.95C113.53 39.85 113.77 38.87 114.26 38C114.74 37.13 115.39 36.46 116.21 35.97C117.03 35.49 117.95 35.24 118.99 35.24C120.06 35.24 121.01 35.48 121.84 35.97C122.67 36.45 123.31 37.12 123.74 37.97C124.17 38.82 124.39 39.8 124.39 40.9C124.39 42.6 123.9 43.98 122.91 45.05C121.92 46.12 120.63 46.66 118.99 46.66Z" fill="white"/>
<path d="M160.8 34.45C159.77 32.55 158.36 31.05 156.57 29.95C154.79 28.85 152.76 28.3 150.49 28.3C148.86 28.3 147.36 28.63 145.99 29.3C145.29 29.64 144.66 30.05 144.09 30.52V28.8H136.39V63.35H143.99V51.43C144.57 51.9 145.22 52.31 145.94 52.64C147.31 53.27 148.82 53.59 150.49 53.59C152.76 53.59 154.79 53.03 156.59 51.91C158.39 50.79 159.8 49.29 160.82 47.41C161.84 45.53 162.34 43.37 162.34 40.93C162.35 38.52 161.84 36.36 160.8 34.45ZM153.83 43.91C153.35 44.78 152.7 45.45 151.88 45.94C151.06 46.42 150.12 46.67 149.06 46.67C148.03 46.67 147.1 46.43 146.28 45.94C145.46 45.46 144.82 44.78 144.35 43.91C143.88 43.04 143.65 42.06 143.65 40.96C143.65 39.86 143.88 38.88 144.35 38.01C144.82 37.14 145.46 36.47 146.28 35.98C147.1 35.5 148.04 35.25 149.1 35.25C150.16 35.25 151.1 35.49 151.9 35.98C152.7 36.46 153.34 37.14 153.83 38.01C154.31 38.88 154.56 39.86 154.56 40.96C154.55 42.06 154.31 43.04 153.83 43.91Z" fill="white"/>
<path d="M169.51 25.5C168.34 25.5 167.36 25.08 166.56 24.25C165.76 23.42 165.36 22.42 165.36 21.25C165.36 20.05 165.76 19.05 166.56 18.25C167.36 17.45 168.34 17.05 169.51 17.05C170.74 17.05 171.74 17.45 172.49 18.25C173.24 19.05 173.62 20.05 173.62 21.25C173.62 22.42 173.24 23.42 172.49 24.25C171.73 25.09 170.74 25.5 169.51 25.5ZM165.66 53.11V28.81H173.36V53.11H165.66Z" fill="white"/>
<path d="M194.79 16.8V30.3C194.25 29.89 193.65 29.53 192.99 29.23C191.62 28.61 190.12 28.3 188.49 28.3C186.19 28.3 184.14 28.85 182.34 29.95C180.54 31.05 179.14 32.55 178.14 34.45C177.14 36.35 176.64 38.52 176.64 40.95C176.64 43.38 177.14 45.55 178.14 47.45C179.14 49.35 180.53 50.85 182.32 51.95C184.1 53.05 186.16 53.6 188.49 53.6C190.12 53.6 191.62 53.26 192.99 52.58C193.71 52.22 194.36 51.79 194.94 51.3V53.11H202.49V16.81H194.79V16.8ZM192.69 45.93C191.89 46.41 190.94 46.66 189.84 46.66C188.81 46.66 187.87 46.42 187.04 45.93C186.21 45.45 185.57 44.77 185.12 43.9C184.67 43.03 184.44 42.05 184.44 40.95C184.44 39.85 184.68 38.87 185.17 38.02C185.65 37.17 186.29 36.49 187.09 35.99C187.89 35.49 188.82 35.24 189.89 35.24C190.96 35.24 191.89 35.48 192.69 35.97C193.49 36.45 194.11 37.12 194.56 37.97C195.01 38.82 195.24 39.8 195.24 40.9C195.24 42.03 195.01 43.03 194.56 43.9C194.11 44.77 193.49 45.45 192.69 45.93Z" fill="white"/>
<path d="M96.13 37.91C96.67 37.74 97.19 37.54 97.68 37.3C99.48 36.43 100.88 35.22 101.88 33.67C102.88 32.12 103.38 30.28 103.38 28.14C103.38 26.14 102.89 24.36 101.9 22.79C100.92 21.22 99.54 20 97.77 19.11C96 18.23 93.94 17.78 91.57 17.78H85.02H83.17H77.12V53.08H85.02V38.58H85.83H87.8L96.33 53.08H105.68L96.13 37.91ZM85.03 23.95H90.68C92.21 23.95 93.41 24.37 94.26 25.2C95.11 26.03 95.54 27.08 95.54 28.35C95.54 29.68 95.11 30.74 94.24 31.52C93.37 32.3 92.17 32.7 90.64 32.7H85.04V23.95H85.03Z" fill="white"/>
<path d="M34.11 37.39V51.14L30.67 53.11L27.23 51.14V33.44H27.25L27.23 33.41L42.54 24.57L45.99 26.55L45.98 30.53L34.11 37.39ZM61.34 53.12L30.67 70.83L0 53.12V17.71L30.67 0L61.34 17.71V53.12ZM54.46 21.68L30.68 7.95001L6.89999 21.68V49.15L30.68 62.88L54.46 49.15V21.68Z" fill="#0091D0"/>
</svg>
